<?xml version="1.0" encoding="UTF-8" standalone="no"?>
<!-- Creator: CorelDRAW X8 -->

<svg
   xmlns:dc="http://purl.org/dc/elements/1.1/"
   xmlns:cc="http://creativecommons.org/ns#"
   xmlns:rdf="http://www.w3.org/1999/02/22-rdf-syntax-ns#"
   xmlns:svg="http://www.w3.org/2000/svg"
   xmlns="http://www.w3.org/2000/svg"
   xmlns:sodipodi="http://sodipodi.sourceforge.net/DTD/sodipodi-0.dtd"
   xmlns:inkscape="http://www.inkscape.org/namespaces/inkscape"
   xml:space="preserve"
   width="7.15782in"
   height="2.73169in"
   version="1.1"
   style="shape-rendering:geometricPrecision; text-rendering:geometricPrecision; image-rendering:optimizeQuality; fill-rule:evenodd; clip-rule:evenodd"
   viewBox="0 0 7154 2730"
   id="svg994"
   sodipodi:docname="re_logo_white.svg"
   inkscape:version="0.92.4 (f8dce91, 2019-08-02)"><metadata
   id="metadata998"><rdf:RDF><cc:Work
       rdf:about=""><dc:format>image/svg+xml</dc:format><dc:type
         rdf:resource="http://purl.org/dc/dcmitype/StillImage" /><dc:title></dc:title></cc:Work></rdf:RDF></metadata><sodipodi:namedview
   pagecolor="#ffffff"
   bordercolor="#666666"
   borderopacity="1"
   objecttolerance="10"
   gridtolerance="10"
   guidetolerance="10"
   inkscape:pageopacity="0"
   inkscape:pageshadow="2"
   inkscape:window-width="1299"
   inkscape:window-height="713"
   id="namedview996"
   showgrid="false"
   inkscape:zoom="1.0609026"
   inkscape:cx="343.57537"
   inkscape:cy="131.12112"
   inkscape:window-x="67"
   inkscape:window-y="27"
   inkscape:window-maximized="1"
   inkscape:current-layer="svg994" />
 <defs
   id="defs972">
  <style
   type="text/css"
   id="style970">
   <![CDATA[
    .fil1 {fill:#1A3365}
    .fil0 {fill:#1A3365;fill-rule:nonzero}
   ]]>
  </style>
 </defs>
 <g
   id="Layer_x0020_1"
   style="fill:#ffffff;fill-opacity:1">
  <metadata
   id="CorelCorpID_0Corel-Layer" />
  <g
   id="_1371346169856"
   style="fill:#ffffff;fill-opacity:1">
   <path
   class="fil0"
   d="M3276 631l4 -71c-21,-7 -44,-10 -69,-10 -72,0 -150,55 -186,133l0 -124 -73 0 0 585 73 0 0 -227c0,-199 77,-300 174,-300 27,0 53,5 77,14zm589 -72l-73 0 0 256c0,166 -80,271 -198,271 -91,0 -144,-62 -144,-146l0 -381 -73 0 0 390c0,123 87,204 206,204 93,0 166,-55 209,-131l0 122 73 0 0 -585zm384 -9c-122,0 -214,76 -232,191l71 14c10,-86 72,-138 161,-138 94,0 158,56 158,144l0 16 -117 12c-194,19 -288,80 -288,192 0,102 80,172 198,172 92,0 172,-45 207,-116l0 107 73 0 0 -386c0,-124 -95,-208 -231,-208zm-43 536c-74,0 -127,-42 -127,-105 0,-72 72,-116 213,-131l115 -11 0 34c0,135 -74,213 -201,213zm444 58l73 0 0 -257c0,-166 80,-270 198,-270 91,0 144,61 144,146l0 381 73 0 0 -390c0,-123 -87,-204 -206,-204 -93,0 -166,54 -209,131l0 -122 -73 0 0 585zm952 -109l-167 0c-40,0 -79,-14 -79,-56 0,-28 14,-50 55,-65 32,17 73,28 118,28 122,0 216,-77 216,-196 0,-51 -20,-95 -51,-129l79 -58 -42 -58 -99 72c-31,-15 -66,-23 -103,-23 -121,0 -215,77 -215,196 0,51 17,95 47,129 -43,19 -77,55 -77,104 0,46 19,77 51,95 -34,24 -66,66 -66,123 0,105 99,167 261,167 163,0 261,-66 261,-176 0,-108 -81,-153 -189,-153zm-73 -423c76,0 142,49 142,134 0,84 -66,133 -142,133 -74,0 -140,-49 -140,-133 0,-85 66,-134 140,-134zm1 687c-118,0 -189,-37 -189,-100 0,-40 14,-80 59,-105 19,2 40,3 62,3l132 0c76,0 125,27 125,100 0,64 -70,102 -189,102z"
   id="path975"
   style="fill:#ffffff;fill-opacity:1" />
   <path
   class="fil0"
   d="M3482 1841c0,-151 -107,-275 -280,-275 -176,0 -283,135 -283,301 0,166 110,302 285,302 135,0 233,-66 262,-180l-93 -22c-18,73 -79,115 -169,115 -105,0 -179,-78 -186,-196l461 0c2,-11 3,-31 3,-45zm-459 -37c20,-98 87,-156 179,-156 103,0 166,66 175,156l-354 0zm983 356l123 0 -270 -354 251 -231 -132 0 -270 238 0 -475 -100 0 0 822 100 0 0 -217 78 -71 220 288zm401 9c128,0 214,-72 214,-174 1,-241 -337,-150 -337,-275 0,-46 41,-73 108,-73 62,0 120,38 136,99l83 -36c-25,-86 -114,-144 -217,-144 -125,0 -206,62 -206,155 0,222 337,125 337,275 0,48 -46,90 -118,90 -91,0 -137,-56 -159,-125l-85 37c25,83 102,171 244,171zm340 202l98 0 0 -292c40,53 116,90 191,90 179,0 282,-130 282,-302 0,-171 -100,-301 -280,-301 -85,0 -161,40 -193,94l0 -85 -98 0 0 796zm279 -290c-113,0 -189,-85 -189,-214 0,-128 76,-213 189,-213 116,0 192,85 192,213 0,129 -76,214 -192,214zm760 -410l6 -95c-20,-7 -43,-10 -67,-10 -72,0 -149,53 -182,127l0 -118 -99 0 0 585 99 0 0 -223c0,-190 75,-280 168,-280 25,0 53,5 75,14zm605 170c0,-151 -107,-275 -280,-275 -176,0 -283,135 -283,301 0,166 110,302 286,302 134,0 232,-66 261,-180l-93 -22c-18,73 -79,115 -168,115 -106,0 -180,-78 -187,-196l462 0c1,-11 2,-31 2,-45zm-458 -37c19,-98 87,-156 178,-156 104,0 166,66 176,156l-354 0zm775 365c129,0 214,-72 214,-174 2,-241 -337,-150 -337,-275 0,-46 42,-73 108,-73 62,0 120,38 137,99l82 -36c-24,-86 -114,-144 -217,-144 -125,0 -205,62 -205,155 0,222 336,125 336,275 0,48 -46,90 -118,90 -91,0 -137,-56 -159,-125l-85 37c26,83 102,171 244,171zm333 -831l0 126 113 0 0 -126 -113 0zm7 822l98 0 0 -585 -98 0 0 585z"
   id="path977"
   style="fill:#ffffff;fill-opacity:1" />
  </g>
  <g
   id="_1371346167104"
   style="fill:#ffffff;fill-opacity:1">
   <polygon
   class="fil1"
   points="0,723 556,1044 1112,1365 556,1686 0,2007 0,1365 "
   id="polygon980"
   style="fill:#ffffff;fill-opacity:1" />
   <polygon
   class="fil1"
   points="47,2088 603,1768 1159,1447 1159,2088 1159,2730 603,2409 "
   id="polygon982"
   style="fill:#ffffff;fill-opacity:1" />
   <polygon
   class="fil1"
   points="1253,2730 1253,2088 1253,1447 1809,1768 2365,2088 1809,2409 "
   id="polygon984"
   style="fill:#ffffff;fill-opacity:1" />
   <polygon
   class="fil1"
   points="2412,2007 1856,1686 1300,1365 1856,1044 2412,723 2412,1365 "
   id="polygon986"
   style="fill:#ffffff;fill-opacity:1" />
   <polygon
   class="fil1"
   points="2365,642 1809,963 1253,1284 1253,642 1253,0 1809,321 "
   id="polygon988"
   style="fill:#ffffff;fill-opacity:1" />
   <polygon
   class="fil1"
   points="1159,0 1159,642 1159,1284 603,963 47,642 603,321 "
   id="polygon990"
   style="fill:#ffffff;fill-opacity:1" />
  </g>
 </g>
</svg>